<svg width="995" height="463" viewBox="0 0 995 463" fill="none" xmlns="http://www.w3.org/2000/svg">
<path d="M70.7143 150.714C84.432 129.777 102.51 115.082 123.354 101.123C215.796 39.2176 333.343 18.2097 442.244 8.95195C493.1 4.62859 544.797 2.9545 595.794 5.90329C614.999 7.0138 628.305 8.24355 646.808 12.0006C655.143 13.6929 673.68 16.4224 678.616 26.126C684.837 38.3582 672.675 58.4809 667.031 67.9942C635.18 121.681 587.345 166.6 540.105 206.403C412.886 313.594 259.5 393.032 100.286 440.54C71.5049 449.128 42.4927 456.345 12.4851 458.628C-10.4156 460.371 21.9426 443.98 26.4072 441.149C148.692 363.63 290.811 319.437 429.744 282.619C499.555 264.12 570.266 249.756 640.609 233.536C674.604 225.698 713.87 219.51 744.67 201.728C841.721 145.699 542.995 301.029 449.967 363.51C448.119 364.751 422.91 378.806 435.232 383.53C442.644 386.371 453.049 386.006 460.231 385.867C495.476 385.186 531.129 380.624 565.816 374.689C632.38 363.299 697.803 345.033 761.336 322.252C804.767 306.679 861.247 289.346 893.647 253.86C931.479 212.426 835.881 227.826 821.496 230.792C775.02 240.376 730.558 257.614 688.778 279.977C673.193 288.319 649.709 302.524 635.122 313.512C628.607 318.42 609.752 331.617 611.444 343.084C613.414 356.438 642.747 361.326 651.889 363.51C688.462 372.247 726.321 374.268 763.775 375.298C766.549 375.375 820.161 380.338 816.72 370.014C813.726 361.032 802.325 357.323 794.363 354.669C790.503 353.382 783.029 354.107 789.993 358.429C808.907 370.169 843.759 346.241 858.181 337.902C887.009 321.232 924.964 297.505 936.532 263.921C939.606 254.995 936.104 253.185 928.199 258.027C919.056 263.627 912.447 273.238 905.842 281.4C895.812 293.794 885.025 306.02 876.169 319.305C871.358 326.521 870.297 333.301 879.624 325.504C887 319.337 894.948 313.207 900.964 305.688C904.593 301.151 895.548 316.057 893.952 321.642C893.084 324.682 892.853 329.02 891.615 331.804C888.596 338.598 891.48 345.959 897.916 350.096C907.094 355.997 920.801 354.419 931.146 355.685C943.76 357.23 961.438 359.625 972.099 366.965C980.515 372.759 984.545 382.523 990.798 390.338" stroke="black" stroke-width="8" stroke-linecap="round"/>
</svg>
